G04 Layer_Physical_Order=1*
G04 Layer_Color=255*
%FSLAX44Y44*%
%MOMM*%
G71*
G01*
G75*
%ADD10R,1.0000X1.0000*%
%ADD11O,2.4130X1.9050*%
%ADD12R,2.4130X1.9050*%
%ADD13R,1.0000X1.0000*%
%ADD14R,1.3000X0.5000*%
%ADD15R,0.5000X1.3000*%
%ADD16R,2.5400X1.0160*%
%ADD17R,1.0160X2.5400*%
%ADD18R,1.2700X3.0480*%
%ADD19R,5.5000X2.0000*%
%ADD20O,1.9050X2.4130*%
%ADD21R,1.9050X2.4130*%
%ADD22O,2.5400X0.6000*%
%ADD23R,2.5400X0.6000*%
%ADD24R,0.6000X2.5400*%
%ADD25O,0.6000X2.5400*%
%ADD26R,1.3000X1.5000*%
%ADD27R,3.8100X3.0500*%
%ADD28R,1.0000X1.4000*%
%ADD29C,0.5000*%
%ADD30C,0.2540*%
%ADD31C,1.2700*%
%ADD32R,1.2700X1.2700*%
%ADD33C,2.0000*%
%ADD34R,2.0000X2.0000*%
%ADD35R,1.5240X1.5240*%
%ADD36C,1.5240*%
%ADD37C,2.6000*%
%ADD38R,2.6000X2.6000*%
%ADD39R,2.0000X2.0000*%
%ADD40C,1.0000*%
D10*
X664500Y98000D02*
D03*
X646500D02*
D03*
X484500Y146750D02*
D03*
X502500D02*
D03*
X438500D02*
D03*
X456500D02*
D03*
X265000Y258250D02*
D03*
X283000D02*
D03*
X148500Y142500D02*
D03*
X130500D02*
D03*
X166000D02*
D03*
X184000D02*
D03*
X130500Y125750D02*
D03*
X148500D02*
D03*
X200500Y270500D02*
D03*
X182500D02*
D03*
X621000Y287500D02*
D03*
X603000D02*
D03*
X580000Y313500D02*
D03*
X598000D02*
D03*
X565500Y18750D02*
D03*
X583500D02*
D03*
X265000Y241750D02*
D03*
X283000D02*
D03*
X451930Y217130D02*
D03*
X469930D02*
D03*
X283490Y341540D02*
D03*
X265490D02*
D03*
X199450D02*
D03*
X217450D02*
D03*
D11*
X176250Y26600D02*
D03*
D12*
Y77400D02*
D03*
D13*
X169750Y107750D02*
D03*
Y125750D02*
D03*
X43100Y172790D02*
D03*
Y154790D02*
D03*
X459000Y287500D02*
D03*
Y269500D02*
D03*
X511250Y95000D02*
D03*
Y113000D02*
D03*
X537130Y153740D02*
D03*
Y135740D02*
D03*
X447000Y302750D02*
D03*
Y320750D02*
D03*
X521750Y153500D02*
D03*
Y135500D02*
D03*
D14*
X334500Y311500D02*
D03*
Y303500D02*
D03*
Y295500D02*
D03*
Y287500D02*
D03*
Y279500D02*
D03*
Y271500D02*
D03*
Y263500D02*
D03*
Y255500D02*
D03*
X419500D02*
D03*
Y263500D02*
D03*
Y271500D02*
D03*
Y279500D02*
D03*
Y287500D02*
D03*
Y295500D02*
D03*
Y303500D02*
D03*
Y311500D02*
D03*
D15*
X349000Y241000D02*
D03*
X357000D02*
D03*
X365000D02*
D03*
X373000D02*
D03*
X381000D02*
D03*
X389000D02*
D03*
X397000D02*
D03*
X405000D02*
D03*
Y326000D02*
D03*
X397000D02*
D03*
X389000D02*
D03*
X381000D02*
D03*
X373000D02*
D03*
X365000D02*
D03*
X357000D02*
D03*
X349000D02*
D03*
D16*
X598360Y53000D02*
D03*
X552640D02*
D03*
X538400Y203160D02*
D03*
X584120D02*
D03*
D17*
X646000Y74860D02*
D03*
Y29140D02*
D03*
D18*
X126000Y33020D02*
D03*
Y93980D02*
D03*
X132250Y332980D02*
D03*
Y272020D02*
D03*
D19*
X197250Y307500D02*
D03*
X281250D02*
D03*
D20*
X75150Y95250D02*
D03*
D21*
X24350D02*
D03*
D22*
X24450Y23040D02*
D03*
Y35740D02*
D03*
Y48440D02*
D03*
Y61140D02*
D03*
X75250D02*
D03*
Y48440D02*
D03*
Y35740D02*
D03*
X483790Y201890D02*
D03*
Y189190D02*
D03*
Y176490D02*
D03*
Y163790D02*
D03*
X432990D02*
D03*
Y176490D02*
D03*
Y189190D02*
D03*
D23*
X75250Y23040D02*
D03*
X432990Y201890D02*
D03*
D24*
X553640Y99020D02*
D03*
D25*
X566340D02*
D03*
X579040D02*
D03*
X591740D02*
D03*
Y149820D02*
D03*
X579040D02*
D03*
X566340D02*
D03*
X553640D02*
D03*
D26*
X246000Y258250D02*
D03*
X228000D02*
D03*
D27*
X222400Y201000D02*
D03*
X108100D02*
D03*
D28*
X511250Y61500D02*
D03*
X530250D02*
D03*
X520750Y39500D02*
D03*
D29*
X584120Y203160D02*
Y268130D01*
X584750Y267500D02*
X630000D01*
X578500Y273750D02*
X584120Y268130D01*
X549750Y273750D02*
X578500D01*
X532750Y219500D02*
X538400Y213850D01*
X473000Y233000D02*
X504110Y201890D01*
X630000Y253170D02*
X635500Y247670D01*
Y129200D02*
Y247670D01*
X630000Y253170D02*
Y267500D01*
X538400Y203160D02*
Y213850D01*
X605500Y102500D02*
Y113500D01*
Y102500D02*
X610000Y98000D01*
X646500D01*
X646000Y74860D02*
Y97500D01*
X664500Y38500D02*
Y98000D01*
X655140Y29140D02*
X664500Y38500D01*
X646000Y29140D02*
X655140D01*
X579040Y129200D02*
X620000D01*
X655550D01*
X664500Y98000D02*
Y120250D01*
X655550Y129200D02*
X664500Y120250D01*
X596860Y43110D02*
Y53000D01*
X583500Y29750D02*
X596860Y43110D01*
X583500Y18750D02*
Y29750D01*
X596860Y53000D02*
Y65390D01*
X591740Y70510D02*
X596860Y65390D01*
X591740Y70510D02*
Y99020D01*
X551140Y43360D02*
Y53000D01*
Y43360D02*
X565500Y29000D01*
Y18750D02*
Y29000D01*
X551140Y53000D02*
Y66640D01*
X566340Y81840D01*
Y99020D01*
X258250Y138000D02*
X270000D01*
X248000Y148250D02*
X258250Y138000D01*
X248000Y148250D02*
Y233250D01*
X256500Y241750D01*
X265000D01*
X269500Y105500D02*
Y125750D01*
X270000Y87750D02*
Y105000D01*
X147250Y23040D02*
X176250D01*
X75250D02*
X147250D01*
Y85250D01*
X169750Y107750D01*
X126250Y61140D02*
Y93980D01*
X137480D01*
X126000D02*
X126250D01*
X148500Y105000D02*
Y125750D01*
X137480Y93980D02*
X148500Y105000D01*
X75250Y95350D02*
Y110750D01*
X75150Y95250D02*
X75250Y95350D01*
X61000Y95250D02*
X75150D01*
X108100Y143600D02*
Y201000D01*
X75250Y110750D02*
X108100Y143600D01*
X112875Y125750D02*
X130500D01*
X103250Y116125D02*
X112875Y125750D01*
X103250Y89750D02*
Y116125D01*
X75250Y61140D02*
X126250D01*
X220000Y86000D02*
Y105000D01*
X211400Y77400D02*
X220000Y86000D01*
X176250Y77400D02*
X211400D01*
X24500Y241000D02*
X44500Y261000D01*
X24500Y62590D02*
Y241000D01*
Y62590D02*
X25950Y61140D01*
X194250Y12000D02*
X270000Y87750D01*
X33250Y12000D02*
X194250D01*
X174750Y125750D02*
X269500D01*
Y105500D02*
X270000Y105000D01*
X283000Y254250D02*
X295750D01*
X245500Y257500D02*
X264500D01*
X228000Y232250D02*
Y254250D01*
X226500Y255750D02*
X228000Y254250D01*
X188750Y255750D02*
X226500D01*
X24500Y129200D02*
X70000D01*
X45415Y260085D02*
X116510Y331180D01*
X184000Y126000D02*
Y142500D01*
X24450Y19300D02*
X31750Y12000D01*
X24450Y19300D02*
Y23040D01*
X55000Y68250D02*
X61250Y74500D01*
X55000Y53500D02*
Y68250D01*
Y53500D02*
X60060Y48440D01*
X61250Y74500D02*
X88000D01*
X103250Y89750D01*
X44500Y78750D02*
X61000Y95250D01*
X44500Y44250D02*
Y78750D01*
X60060Y48440D02*
X75250D01*
X53010Y35740D02*
X75250D01*
X44500Y44250D02*
X53010Y35740D01*
X70000Y230800D02*
X149700D01*
X166000Y214500D01*
Y201000D02*
Y214500D01*
Y201000D02*
X222400D01*
X166000Y142500D02*
Y201000D01*
X226550Y230800D02*
X228000Y232250D01*
X148500Y142500D02*
X166000D01*
X130500Y125750D02*
Y142500D01*
X148500Y125750D02*
X173750D01*
X108100Y201000D02*
Y205700D01*
X182500Y262000D02*
X188750Y255750D01*
X182500Y262000D02*
Y270500D01*
X130730Y264120D02*
X137110Y270500D01*
X228000Y206600D02*
Y232250D01*
X222400Y201000D02*
X228000Y206600D01*
X200500Y270500D02*
Y278000D01*
X194500Y284000D02*
X200500Y278000D01*
X166250Y284000D02*
X194500D01*
X155000Y295250D02*
X166250Y284000D01*
X110750Y295250D02*
X155000D01*
X85500Y270000D02*
X110750Y295250D01*
X85500Y261000D02*
Y270000D01*
X137110Y270500D02*
X182500D01*
X24450Y48440D02*
Y61140D01*
Y23040D02*
Y35740D01*
Y48440D01*
X416000Y105000D02*
X420000D01*
X438000Y265500D02*
Y271500D01*
X436000Y263500D02*
X438000Y265500D01*
X419500Y263500D02*
X436000D01*
X438000Y271500D02*
Y276500D01*
X435000Y279500D02*
X438000Y276500D01*
X419500Y279500D02*
X435000D01*
X322000Y271500D02*
X334500D01*
X317999Y275501D02*
X322000Y271500D01*
X317999Y275501D02*
Y279499D01*
Y283499D01*
X322000Y287500D01*
X334500D01*
X354000Y279500D02*
Y290500D01*
X385860Y279500D02*
X386000Y279360D01*
X334500Y279500D02*
X385860D01*
X349000Y295500D02*
X354000Y290500D01*
X334500Y295500D02*
X349000D01*
X386000Y279360D02*
X394140Y287500D01*
X419500D01*
X627000Y286500D02*
X630000Y283500D01*
X621000Y286500D02*
X627000D01*
X630000Y267500D02*
Y283500D01*
X626000Y313500D02*
X630000Y317500D01*
X598000Y313500D02*
X626000D01*
X586000Y286500D02*
X603000D01*
X580000Y292500D02*
X586000Y286500D01*
X538400Y153740D02*
Y203160D01*
Y153740D02*
X549720D01*
X537130D02*
X538400D01*
X549720D02*
X553640Y149820D01*
X591740Y156170D02*
X599360D01*
X579040Y101560D02*
Y129200D01*
X43100Y154790D02*
X69810D01*
X436690Y201890D02*
X451930Y217130D01*
X432990Y201890D02*
X436690D01*
X469930Y217020D02*
X483790Y203160D01*
X504110Y196810D02*
Y201890D01*
X496490Y189190D02*
X504110Y196810D01*
X483790Y189190D02*
X496490D01*
X605710Y140930D02*
Y149820D01*
X599360Y156170D02*
X605710Y149820D01*
X633250Y320870D02*
Y324680D01*
X130730Y322540D02*
Y331180D01*
X116510D02*
X130730D01*
X537130Y129200D02*
X579040D01*
X511250Y61500D02*
Y95000D01*
X521750Y135500D02*
X536890D01*
X537130Y129200D02*
Y135740D01*
X536750Y108000D02*
Y110750D01*
X537130Y111130D02*
Y129200D01*
X536750Y110750D02*
X537130Y111130D01*
X530250Y61500D02*
Y77500D01*
X580000Y292500D02*
Y313500D01*
X433750Y320750D02*
X447000D01*
X217450Y341540D02*
X265490D01*
X270000Y86000D02*
Y105000D01*
Y86000D02*
X276250Y79750D01*
X469250D01*
Y65250D02*
Y79750D01*
Y65250D02*
X495000Y39500D01*
X518000D01*
X483790Y163790D02*
X497460D01*
X469250Y79750D02*
Y101250D01*
X497460Y163790D02*
X501750Y159500D01*
Y143250D02*
Y159500D01*
Y143250D02*
X503750Y141250D01*
X500750Y132750D02*
Y141250D01*
X432990Y189190D02*
X448560D01*
X456750Y181000D01*
X403500Y147250D02*
Y162899D01*
X421040Y163790D02*
X432990D01*
X413000Y155750D02*
X421040Y163790D01*
X403500Y162899D02*
X417091Y176490D01*
X432990D01*
X403500Y147250D02*
X408500Y142250D01*
X419250D01*
X469250Y101250D02*
X500750Y132750D01*
X456750Y146500D02*
Y181000D01*
Y146500D02*
X482750D01*
X420000Y105000D02*
X438500Y123500D01*
Y146750D01*
D30*
X563800Y182840D02*
Y209200D01*
X541500Y231500D02*
X563800Y209200D01*
X498000Y231500D02*
X541500D01*
X489750Y239750D02*
X498000Y231500D01*
X489750Y239750D02*
Y253750D01*
X325000Y230500D02*
X353250D01*
X313750Y241750D02*
X325000Y230500D01*
X283000Y241750D02*
X313750D01*
X353250Y230500D02*
X357000Y234250D01*
Y241000D01*
X323750D02*
X349000D01*
X293750Y271000D02*
X323750Y241000D01*
X201000Y271000D02*
X293750D01*
X364750Y177000D02*
Y181250D01*
X317000Y255500D02*
X334500D01*
X288000Y284500D02*
X317000Y255500D01*
X208500Y284500D02*
X288000D01*
X318250Y263500D02*
X334500D01*
X283240Y298510D02*
X318250Y263500D01*
X283240Y298510D02*
Y307500D01*
X381000Y197500D02*
Y241000D01*
X364750Y181250D02*
X381000Y197500D01*
X389000Y196250D02*
Y241000D01*
X385000Y192250D02*
X389000Y196250D01*
X385000Y186500D02*
Y192250D01*
X51690Y243500D02*
X208250D01*
X43100Y234910D02*
X51690Y243500D01*
X200500Y270500D02*
X201000Y271000D01*
X199220Y293780D02*
X208500Y284500D01*
X199220Y293780D02*
Y307500D01*
X283490Y307750D02*
Y341540D01*
X199450Y307730D02*
Y341540D01*
X397000Y174790D02*
Y241000D01*
X394890Y172680D02*
X395070Y172500D01*
X405000Y243500D02*
X417000D01*
X437000D01*
X419500Y255500D02*
X446000D01*
Y240300D02*
Y255500D01*
X408860Y203160D02*
X446000Y240300D01*
X373000Y308500D02*
Y326000D01*
X563800Y182840D02*
X573960Y172680D01*
X572690D02*
X573960D01*
X43100Y172790D02*
Y234910D01*
X457000Y269250D02*
X461000Y265250D01*
X457000Y287250D02*
X459000Y289250D01*
X511500Y153500D02*
X521750D01*
X471250Y248250D02*
X511250Y208250D01*
Y113000D02*
Y208250D01*
X459000Y289250D02*
Y297750D01*
X549500Y317250D02*
Y343250D01*
X529500Y317250D02*
Y336000D01*
X509500Y317250D02*
Y334500D01*
X471250Y248250D02*
Y299000D01*
X419500Y303500D02*
X453250D01*
X459000Y297750D01*
X419500Y311500D02*
X458750D01*
X471250Y299000D01*
X405000Y326000D02*
X418750D01*
X419750Y325000D01*
X397000Y326000D02*
Y334000D01*
X399210Y336210D01*
X503250Y340750D02*
X509500Y334500D01*
X519750Y345750D02*
X529500Y336000D01*
X542250Y350500D02*
X549500Y343250D01*
X389000Y326000D02*
Y334500D01*
X395250Y340750D01*
X503250D01*
X365000Y326000D02*
Y334000D01*
X376750Y345750D01*
X519750D01*
X357000Y326000D02*
Y334750D01*
X372750Y350500D01*
X542250D01*
X399210Y336210D02*
X480290D01*
X489500Y327000D01*
Y317250D02*
Y327000D01*
X461000Y188000D02*
Y265250D01*
Y188000D02*
X472510Y176490D01*
X483790D01*
X266747Y35995D02*
X256750D01*
Y21000D01*
X266747D01*
X256750Y28498D02*
X261748D01*
X281742Y33496D02*
X279243Y35995D01*
X274244D01*
X271745Y33496D01*
Y23499D01*
X274244Y21000D01*
X279243D01*
X281742Y23499D01*
Y28498D01*
X276744D01*
X286740Y35995D02*
X296737D01*
X291739D01*
Y21000D01*
X316731Y35995D02*
Y25998D01*
X321729Y21000D01*
X326727Y25998D01*
Y35995D01*
X341722Y21000D02*
X331726D01*
X341722Y30997D01*
Y33496D01*
X339223Y35995D01*
X334225D01*
X331726Y33496D01*
X346721Y21000D02*
Y23499D01*
X349220D01*
Y21000D01*
X346721D01*
X359217Y33496D02*
X361716Y35995D01*
X366714D01*
X369214Y33496D01*
Y23499D01*
X366714Y21000D01*
X361716D01*
X359217Y23499D01*
Y33496D01*
X399204Y21000D02*
X389207D01*
X399204Y30997D01*
Y33496D01*
X396705Y35995D01*
X391706D01*
X389207Y33496D01*
X404202D02*
X406701Y35995D01*
X411700D01*
X414199Y33496D01*
Y23499D01*
X411700Y21000D01*
X406701D01*
X404202Y23499D01*
Y33496D01*
X419197Y21000D02*
X424196D01*
X421697D01*
Y35995D01*
X419197Y33496D01*
X441690Y35995D02*
X431693D01*
Y28498D01*
X436692Y30997D01*
X439191D01*
X441690Y28498D01*
Y23499D01*
X439191Y21000D01*
X434193D01*
X431693Y23499D01*
D31*
X549750Y273750D02*
D03*
Y253750D02*
D03*
X529750Y273750D02*
D03*
Y253750D02*
D03*
X509750Y273750D02*
D03*
Y253750D02*
D03*
X489750Y273750D02*
D03*
X489500Y296500D02*
D03*
Y316500D02*
D03*
X509500Y296500D02*
D03*
Y316500D02*
D03*
X529500Y296500D02*
D03*
Y316500D02*
D03*
X549500Y296500D02*
D03*
D32*
X489750Y253750D02*
D03*
X549500Y316500D02*
D03*
D33*
X630000Y317500D02*
D03*
X580000Y292500D02*
D03*
X44500Y261000D02*
D03*
Y324000D02*
D03*
X85500D02*
D03*
D34*
X630000Y267500D02*
D03*
D35*
X70000Y230800D02*
D03*
X620000D02*
D03*
D36*
X70000Y205400D02*
D03*
Y180000D02*
D03*
Y154600D02*
D03*
Y129200D02*
D03*
X620000Y205400D02*
D03*
Y180000D02*
D03*
Y154600D02*
D03*
Y129200D02*
D03*
D37*
X420000Y105000D02*
D03*
X470000D02*
D03*
X370000D02*
D03*
X320000D02*
D03*
X270000D02*
D03*
D38*
X220000D02*
D03*
D39*
X85500Y261000D02*
D03*
D40*
X532750Y219500D02*
D03*
X473000Y231000D02*
D03*
X584000Y218500D02*
D03*
X605500Y113500D02*
D03*
X270000Y138000D02*
D03*
X364750Y176500D02*
D03*
X295750Y254250D02*
D03*
X228000Y232250D02*
D03*
X208250Y243500D02*
D03*
X317999Y279499D02*
D03*
X385000Y186500D02*
D03*
X438000Y271500D02*
D03*
X386000Y279360D02*
D03*
X397000Y172500D02*
D03*
X408860Y203160D02*
D03*
X446000Y255500D02*
D03*
X437000Y243500D02*
D03*
X572690Y172680D02*
D03*
X417000Y243500D02*
D03*
X373000Y308500D02*
D03*
X536750Y108000D02*
D03*
X529750Y78000D02*
D03*
X241000Y341500D02*
D03*
X605710Y140930D02*
D03*
X433750Y320750D02*
D03*
X419750Y325000D02*
D03*
X413000Y155750D02*
D03*
X419250Y142250D02*
D03*
M02*
