G04 Layer_Color=128*
%FSLAX44Y44*%
%MOMM*%
G71*
G01*
G75*
%ADD10R,1.0000X1.0000*%
%ADD13R,1.0000X1.0000*%
%ADD41R,1.4000X1.0000*%
%ADD42R,1.6000X1.8000*%
%ADD43R,0.9000X0.6000*%
D10*
X364500Y165000D02*
D03*
X382500D02*
D03*
X550500Y218500D02*
D03*
X568500D02*
D03*
X506760Y67270D02*
D03*
X488760D02*
D03*
X575500Y331000D02*
D03*
X593500D02*
D03*
X575500Y315500D02*
D03*
X593500D02*
D03*
D13*
X252750Y169500D02*
D03*
Y151500D02*
D03*
X346750Y148750D02*
D03*
Y130750D02*
D03*
X365000Y148500D02*
D03*
Y130500D02*
D03*
X383000Y148500D02*
D03*
Y130500D02*
D03*
X434500Y148750D02*
D03*
Y130750D02*
D03*
X449500D02*
D03*
Y148750D02*
D03*
X365680Y261470D02*
D03*
Y279470D02*
D03*
X407590Y262740D02*
D03*
Y280740D02*
D03*
X459000Y273750D02*
D03*
Y291750D02*
D03*
X339010Y261470D02*
D03*
Y279470D02*
D03*
D41*
X291500Y160250D02*
D03*
X269500Y150750D02*
D03*
Y169750D02*
D03*
D42*
X291500Y132000D02*
D03*
X319500D02*
D03*
D43*
X552250Y332250D02*
D03*
Y347250D02*
D03*
X529000Y332250D02*
D03*
Y347250D02*
D03*
X509000Y332250D02*
D03*
Y347250D02*
D03*
X486250Y332250D02*
D03*
Y347250D02*
D03*
M02*
