M48
;Layer_Color=9474304
;FILE_FORMAT=4:4
METRIC,LZ
;TYPE=PLATED
T1F00S00C0.5000
T2F00S00C0.7620
T3F00S00C0.8000
T4F00S00C1.0000
T5F00S00C1.2000
T6F00S00C1.3000
%
T01
X0036475Y001765
X00385Y001865
X00397Y001725
X00413Y0015575
X0041925Y0014225
X0040886Y0020316
X00417Y002435
X00437
X00446Y002555
X00438Y002715
X0043375Y0032075
X0041975Y00325
X00373Y003085
X00386Y0027936
X00473Y00231
X0053275Y002195
X00584Y002185
X0057269Y0017268
X0060571Y0014093
X006055Y001135
X0053675Y00108
X0052975Y00078
X0027Y00138
X00228Y0023225
X0020825Y002435
X0029575Y0025425
X00317999Y00279499
X00241Y003415
T02
X0052975Y0025375
X0054975
Y0027375
X0050975
X005295Y002965
X004895
Y003165
X005095
T03
X0048975Y0025375
X0050975
X0048975Y0027375
X0052975
X005495Y002965
Y003165
X005295
X005095Y002965
T04
X0062Y001292
Y001546
Y0018
Y002054
Y002308
X0007
Y002054
Y0018
Y001546
Y001292
X000855Y00261
X000445
Y00324
X000855
T05
X0058Y002925
X0063Y003175
Y002675
T06
X0037Y00105
X0042
X0047
X0032
X0027
X0022
M30
