G04 Layer_Physical_Order=2*
G04 Layer_Color=16711680*
%FSLAX44Y44*%
%MOMM*%
G71*
G01*
G75*
%ADD10R,1.0000X1.0000*%
%ADD13R,1.0000X1.0000*%
%ADD29C,0.5000*%
%ADD30C,0.2540*%
%ADD31C,1.2700*%
%ADD32R,1.2700X1.2700*%
%ADD33C,2.0000*%
%ADD34R,2.0000X2.0000*%
%ADD35R,1.5240X1.5240*%
%ADD36C,1.5240*%
%ADD37C,2.6000*%
%ADD38R,2.6000X2.6000*%
%ADD39R,2.0000X2.0000*%
%ADD40C,1.0000*%
%ADD41R,1.4000X1.0000*%
%ADD42R,1.6000X1.8000*%
%ADD43R,0.9000X0.6000*%
D10*
X364500Y165000D02*
D03*
X382500D02*
D03*
X550500Y218500D02*
D03*
X568500D02*
D03*
X506760Y67270D02*
D03*
X488760D02*
D03*
X575500Y331000D02*
D03*
X593500D02*
D03*
X575500Y315500D02*
D03*
X593500D02*
D03*
D13*
X252750Y169500D02*
D03*
Y151500D02*
D03*
X346750Y148750D02*
D03*
Y130750D02*
D03*
X365000Y148500D02*
D03*
Y130500D02*
D03*
X383000Y148500D02*
D03*
Y130500D02*
D03*
X434500Y148750D02*
D03*
Y130750D02*
D03*
X449500D02*
D03*
Y148750D02*
D03*
X365680Y261470D02*
D03*
Y279470D02*
D03*
X407590Y262740D02*
D03*
Y280740D02*
D03*
X459000Y273750D02*
D03*
Y291750D02*
D03*
X339010Y261470D02*
D03*
Y279470D02*
D03*
D29*
X440250Y273750D02*
X459000D01*
X550500Y218500D02*
X562800Y230800D01*
X620000D01*
X532750Y219500D02*
X549500D01*
X486500D02*
X532750D01*
X474250Y231750D02*
X486500Y219500D01*
X427000Y231750D02*
X474250D01*
X427000D02*
Y262500D01*
X229250Y231750D02*
X427000D01*
X227500Y232500D02*
X229250Y230750D01*
X568500Y218500D02*
X582450D01*
X605710Y113710D02*
Y140930D01*
X639020Y67270D02*
X645250Y73500D01*
X506760Y67270D02*
X639020D01*
X240000Y135000D02*
X270000Y105000D01*
X240000Y135000D02*
Y163500D01*
X246000Y169500D01*
X252750D01*
X253000Y169750D02*
X269500D01*
X270000Y138000D02*
Y150250D01*
X319500Y105500D02*
Y132000D01*
X291500D02*
Y160250D01*
X253500Y150750D02*
X269500D01*
X364750Y165250D02*
Y176500D01*
X346750Y86250D02*
Y130750D01*
X340250Y79750D02*
X346750Y86250D01*
X276000Y79750D02*
X340250D01*
X270000Y85750D02*
X276000Y79750D01*
X270000Y85750D02*
Y105000D01*
X346750Y130750D02*
X364750D01*
X365000Y148500D02*
X382000D01*
X382500Y149000D02*
Y165000D01*
X370000Y105000D02*
X383000Y118000D01*
Y130500D01*
X295750Y286250D02*
X320000Y310500D01*
X295750Y254250D02*
Y286250D01*
X44500Y259170D02*
X132830Y347500D01*
X468660Y80090D02*
Y103660D01*
X44500Y129250D02*
X44550Y129200D01*
X70000D01*
X481480Y67270D02*
X488760D01*
X468660Y80090D02*
X481480Y67270D01*
X317999Y271501D02*
X328030Y261470D01*
X317999Y271501D02*
Y279499D01*
X339010Y279470D02*
Y291490D01*
X320000Y310500D02*
X339010Y291490D01*
Y262850D02*
X405160D01*
X328030Y261470D02*
X339010D01*
X76350Y186350D02*
X613650D01*
X339120Y279360D02*
X386000D01*
X429240Y262740D02*
X438000Y271500D01*
X407590Y262740D02*
X429240D01*
X386000Y279360D02*
X403670D01*
X407590Y283280D01*
X409210Y262500D02*
X427000D01*
X407590Y264120D02*
X408280Y263430D01*
X613650Y186350D02*
X620000Y180000D01*
X605710Y140930D02*
Y149820D01*
X492680Y203740D02*
X620000D01*
X70000Y180000D02*
X76350Y186350D01*
X70000Y203740D02*
X492680D01*
X594030Y161500D02*
X605710Y149820D01*
X506650Y67270D02*
X506760D01*
X529750Y67770D02*
Y78000D01*
X320000Y310500D02*
Y347500D01*
X549750Y273750D02*
X551250Y275250D01*
X459000Y273750D02*
X489750D01*
X613250Y293500D02*
X629160Y277590D01*
Y266660D02*
Y277590D01*
X575500Y315500D02*
Y331000D01*
X593500Y306000D02*
Y315500D01*
X580000Y292500D02*
X593500Y306000D01*
Y331000D02*
X605000D01*
X613250Y322750D01*
Y293500D02*
Y322750D01*
X241000Y341500D02*
Y347500D01*
X132830D02*
X241000D01*
X320000D01*
X620000Y230800D02*
X644700D01*
X645250Y230250D01*
Y73500D02*
Y230250D01*
Y302050D01*
X489500Y297250D02*
X549500D01*
X549750Y273750D02*
Y296250D01*
X549500Y296500D02*
X549750Y296250D01*
X549500Y296500D02*
Y297250D01*
X433750Y320750D02*
Y336250D01*
X422500Y347500D02*
X433750Y336250D01*
X320000Y347500D02*
X422500D01*
X486250Y347250D02*
X509000D01*
X529000D01*
X552250D01*
X629900Y317400D02*
X645250Y302050D01*
X552250Y347250D02*
X619750D01*
X630000Y337000D01*
Y317500D02*
Y337000D01*
X534700Y105750D02*
X536750Y107800D01*
X470080Y105750D02*
X534700D01*
X600630Y172680D02*
X618710Y154600D01*
X418750Y161500D02*
X594030D01*
X397180Y172680D02*
X600630D01*
X397000Y172500D02*
X397180Y172680D01*
X395070Y172500D02*
X397000D01*
X413000Y155750D02*
X418750Y161500D01*
X434500Y148750D02*
X449500D01*
X419250Y142250D02*
X425750Y148750D01*
X434500D01*
Y130750D02*
X449500D01*
X469706Y105200D02*
X470000Y105632D01*
X470080Y105750D01*
X470000Y105000D02*
Y105632D01*
X468660Y103660D02*
X469706Y105200D01*
X449500Y130750D02*
X461750D01*
X470000Y122500D01*
Y105632D02*
Y122500D01*
D30*
X457460Y244040D02*
X520040D01*
X446000Y255500D02*
X457460Y244040D01*
X520040D02*
X529750Y253750D01*
X535500Y239500D02*
X549750Y253750D01*
X441000Y239500D02*
X535500D01*
X437000Y243500D02*
X441000Y239500D01*
X374500Y139000D02*
X383000Y130500D01*
X356500Y139000D02*
X374500D01*
X346750Y148750D02*
X356500Y139000D01*
X208250Y243500D02*
X417000D01*
X435830D02*
X437000D01*
X434260Y245070D02*
X435830Y243500D01*
X373000Y308500D02*
X388000D01*
X492300Y204120D02*
X492680Y203740D01*
X388000Y308500D02*
X405000Y291500D01*
X458750D01*
X459000Y291750D01*
X500000Y263500D02*
X509750Y253750D01*
X459000Y291750D02*
X462250Y288500D01*
X468750D01*
X473000Y284250D01*
X500000Y263500D02*
Y278750D01*
X494500Y284250D02*
X500000Y278750D01*
X473000Y284250D02*
X494500D01*
X419750Y314000D02*
Y325000D01*
X566000Y315500D02*
X575500D01*
X419750Y314000D02*
X427250Y306500D01*
X557000D01*
X566000Y315500D01*
X489500Y316500D02*
Y329000D01*
X509500Y316500D02*
Y331750D01*
X529500Y316500D02*
Y331750D01*
X549500Y316500D02*
Y329500D01*
X486250Y332250D02*
X489500Y329000D01*
X549500Y329500D02*
X552250Y332250D01*
D31*
X549750Y273750D02*
D03*
Y253750D02*
D03*
X529750Y273750D02*
D03*
Y253750D02*
D03*
X509750Y273750D02*
D03*
Y253750D02*
D03*
X489750Y273750D02*
D03*
X489500Y296500D02*
D03*
Y316500D02*
D03*
X509500Y296500D02*
D03*
Y316500D02*
D03*
X529500Y296500D02*
D03*
Y316500D02*
D03*
X549500Y296500D02*
D03*
D32*
X489750Y253750D02*
D03*
X549500Y316500D02*
D03*
D33*
X630000Y317500D02*
D03*
X580000Y292500D02*
D03*
X44500Y261000D02*
D03*
Y324000D02*
D03*
X85500D02*
D03*
D34*
X630000Y267500D02*
D03*
D35*
X70000Y230800D02*
D03*
X620000D02*
D03*
D36*
X70000Y205400D02*
D03*
Y180000D02*
D03*
Y154600D02*
D03*
Y129200D02*
D03*
X620000Y205400D02*
D03*
Y180000D02*
D03*
Y154600D02*
D03*
Y129200D02*
D03*
D37*
X420000Y105000D02*
D03*
X470000D02*
D03*
X370000D02*
D03*
X320000D02*
D03*
X270000D02*
D03*
D38*
X220000D02*
D03*
D39*
X85500Y261000D02*
D03*
D40*
X532750Y219500D02*
D03*
X473000Y231000D02*
D03*
X584000Y218500D02*
D03*
X605500Y113500D02*
D03*
X270000Y138000D02*
D03*
X364750Y176500D02*
D03*
X295750Y254250D02*
D03*
X228000Y232250D02*
D03*
X208250Y243500D02*
D03*
X317999Y279499D02*
D03*
X385000Y186500D02*
D03*
X438000Y271500D02*
D03*
X386000Y279360D02*
D03*
X397000Y172500D02*
D03*
X408860Y203160D02*
D03*
X446000Y255500D02*
D03*
X437000Y243500D02*
D03*
X572690Y172680D02*
D03*
X417000Y243500D02*
D03*
X373000Y308500D02*
D03*
X536750Y108000D02*
D03*
X529750Y78000D02*
D03*
X241000Y341500D02*
D03*
X605710Y140930D02*
D03*
X433750Y320750D02*
D03*
X419750Y325000D02*
D03*
X413000Y155750D02*
D03*
X419250Y142250D02*
D03*
D41*
X291500Y160250D02*
D03*
X269500Y150750D02*
D03*
Y169750D02*
D03*
D42*
X291500Y132000D02*
D03*
X319500D02*
D03*
D43*
X552250Y332250D02*
D03*
Y347250D02*
D03*
X529000Y332250D02*
D03*
Y347250D02*
D03*
X509000Y332250D02*
D03*
Y347250D02*
D03*
X486250Y332250D02*
D03*
Y347250D02*
D03*
M02*
