G04 Layer_Color=32896*
%FSLAX44Y44*%
%MOMM*%
G71*
G01*
G75*
%ADD44C,0.1000*%
D44*
X246000Y144750D02*
X259500D01*
X246000D02*
Y176250D01*
X259500D01*
Y144750D02*
Y176250D01*
X292750Y145000D02*
Y153500D01*
X278250Y145000D02*
X292750D01*
X268500Y157420D02*
Y163000D01*
X278250Y175500D02*
X292750D01*
Y167000D02*
Y175500D01*
X281750Y121250D02*
X329250D01*
Y142750D01*
X281750D02*
X329250D01*
X281750Y121250D02*
Y142750D01*
X389250Y158250D02*
Y171750D01*
X357750Y158250D02*
X389250D01*
X357750D02*
Y171750D01*
X389250D01*
X340000Y124000D02*
X353500D01*
X340000D02*
Y155500D01*
X353500D01*
Y124000D02*
Y155500D01*
X358250Y123750D02*
X371750D01*
X358250D02*
Y155250D01*
X371750D01*
Y123750D02*
Y155250D01*
X376250Y123750D02*
X389750D01*
X376250D02*
Y155250D01*
X389750D01*
Y123750D02*
Y155250D01*
X427750Y124000D02*
X441250D01*
X427750D02*
Y155500D01*
X441250D01*
Y124000D02*
Y155500D01*
X575250Y211750D02*
Y225250D01*
X543750Y211750D02*
X575250D01*
X543750D02*
Y225250D01*
X575250D01*
X442750Y155500D02*
X456250D01*
Y124000D02*
Y155500D01*
X442750Y124000D02*
X456250D01*
X442750D02*
Y155500D01*
X358930Y286220D02*
X372430D01*
Y254720D02*
Y286220D01*
X358930Y254720D02*
X372430D01*
X358930D02*
Y286220D01*
X400840Y287490D02*
X414340D01*
Y255990D02*
Y287490D01*
X400840Y255990D02*
X414340D01*
X400840D02*
Y287490D01*
X482010Y60520D02*
Y74020D01*
X513510D01*
Y60520D02*
Y74020D01*
X482010Y60520D02*
X513510D01*
X452250Y298500D02*
X465750D01*
Y267000D02*
Y298500D01*
X452250Y267000D02*
X465750D01*
X452250D02*
Y298500D01*
X332260Y286220D02*
X345760D01*
Y254720D02*
Y286220D01*
X332260Y254720D02*
X345760D01*
X332260D02*
Y286220D01*
X600250Y324250D02*
Y337750D01*
X568750Y324250D02*
X600250D01*
X568750D02*
Y337750D01*
X600250D01*
Y308750D02*
Y322250D01*
X568750Y308750D02*
X600250D01*
X568750D02*
Y322250D01*
X600250D01*
X546250Y351750D02*
X558250D01*
Y327750D02*
Y351750D01*
X546250Y327750D02*
X558250D01*
X546250D02*
Y351750D01*
X523000D02*
X535000D01*
Y327750D02*
Y351750D01*
X523000Y327750D02*
X535000D01*
X523000D02*
Y351750D01*
X503000D02*
X515000D01*
Y327750D02*
Y351750D01*
X503000Y327750D02*
X515000D01*
X503000D02*
Y351750D01*
X480250D02*
X492250D01*
Y327750D02*
Y351750D01*
X480250Y327750D02*
X492250D01*
X480250D02*
Y351750D01*
X324250Y145500D02*
Y151498D01*
X321251D01*
X320251Y150498D01*
Y148499D01*
X321251Y147499D01*
X324250D01*
X322251D02*
X320251Y145500D01*
X318252Y150498D02*
X317252Y151498D01*
X315253D01*
X314253Y150498D01*
Y149499D01*
X315253Y148499D01*
X314253Y147499D01*
Y146500D01*
X315253Y145500D01*
X317252D01*
X318252Y146500D01*
Y147499D01*
X317252Y148499D01*
X318252Y149499D01*
Y150498D01*
X317252Y148499D02*
X315253D01*
X599750Y300500D02*
Y306498D01*
X596751D01*
X595751Y305498D01*
Y303499D01*
X596751Y302499D01*
X599750D01*
X597751D02*
X595751Y300500D01*
X593752Y301500D02*
X592752Y300500D01*
X590753D01*
X589753Y301500D01*
Y305498D01*
X590753Y306498D01*
X592752D01*
X593752Y305498D01*
Y304499D01*
X592752Y303499D01*
X589753D01*
X378750Y174500D02*
Y180498D01*
X375751D01*
X374751Y179498D01*
Y177499D01*
X375751Y176499D01*
X378750D01*
X376751D02*
X374751Y174500D01*
X368753D02*
X372752D01*
X368753Y178499D01*
Y179498D01*
X369753Y180498D01*
X371752D01*
X372752Y179498D01*
X465000Y145750D02*
X459002D01*
Y142751D01*
X460002Y141751D01*
X462001D01*
X463001Y142751D01*
Y145750D01*
Y143751D02*
X465000Y141751D01*
Y139752D02*
Y136753D01*
X464000Y135753D01*
X463001Y136753D01*
Y138752D01*
X462001Y139752D01*
X461001Y138752D01*
Y135753D01*
X465000Y129755D02*
Y133754D01*
X461001Y129755D01*
X460002D01*
X459002Y130755D01*
Y132754D01*
X460002Y133754D01*
X500111Y83699D02*
X501111Y84698D01*
X503110D01*
X504110Y83699D01*
Y79700D01*
X503110Y78700D01*
X501111D01*
X500111Y79700D01*
X498112Y78700D02*
X495113D01*
X494113Y79700D01*
X495113Y80700D01*
X497112D01*
X498112Y81699D01*
X497112Y82699D01*
X494113D01*
X488115Y84698D02*
X492114D01*
Y81699D01*
X490115Y82699D01*
X489115D01*
X488115Y81699D01*
Y79700D01*
X489115Y78700D01*
X491114D01*
X492114Y79700D01*
X564391Y233658D02*
X565391Y234658D01*
X567390D01*
X568390Y233658D01*
Y229660D01*
X567390Y228660D01*
X565391D01*
X564391Y229660D01*
X562392Y228660D02*
X559393D01*
X558393Y229660D01*
X559393Y230659D01*
X561392D01*
X562392Y231659D01*
X561392Y232659D01*
X558393D01*
X553395Y228660D02*
Y234658D01*
X556394Y231659D01*
X552395D01*
X419502Y145001D02*
X418502Y146001D01*
Y148000D01*
X419502Y149000D01*
X423500D01*
X424500Y148000D01*
Y146001D01*
X423500Y145001D01*
X424500Y143002D02*
Y140003D01*
X423500Y139003D01*
X422501Y140003D01*
Y142002D01*
X421501Y143002D01*
X420501Y142002D01*
Y139003D01*
X424500Y133005D02*
Y137004D01*
X420501Y133005D01*
X419502D01*
X418502Y134005D01*
Y136004D01*
X419502Y137004D01*
X402500Y157750D02*
Y163748D01*
X399501D01*
X398501Y162748D01*
Y160749D01*
X399501Y159749D01*
X402500D01*
X400501D02*
X398501Y157750D01*
X396502Y162748D02*
X395502Y163748D01*
X393503D01*
X392503Y162748D01*
Y161749D01*
X393503Y160749D01*
X394503D01*
X393503D01*
X392503Y159749D01*
Y158750D01*
X393503Y157750D01*
X395502D01*
X396502Y158750D01*
X470000Y281750D02*
Y275752D01*
X472999D01*
X473999Y276752D01*
Y278751D01*
X472999Y279751D01*
X470000D01*
X471999D02*
X473999Y281750D01*
X475998D02*
X477997D01*
X476998D01*
Y275752D01*
X475998Y276752D01*
X579501Y344998D02*
X580501Y345998D01*
X582500D01*
X583500Y344998D01*
Y341000D01*
X582500Y340000D01*
X580501D01*
X579501Y341000D01*
X577502Y344998D02*
X576502Y345998D01*
X574503D01*
X573503Y344998D01*
Y343999D01*
X574503Y342999D01*
X573503Y341999D01*
Y341000D01*
X574503Y340000D01*
X576502D01*
X577502Y341000D01*
Y341999D01*
X576502Y342999D01*
X577502Y343999D01*
Y344998D01*
X576502Y342999D02*
X574503D01*
X344751Y163498D02*
X345751Y164498D01*
X347750D01*
X348750Y163498D01*
Y159500D01*
X347750Y158500D01*
X345751D01*
X344751Y159500D01*
X342752Y164498D02*
X338753D01*
Y163498D01*
X342752Y159500D01*
Y158500D01*
X355501Y119998D02*
X356501Y120998D01*
X358500D01*
X359500Y119998D01*
Y116000D01*
X358500Y115000D01*
X356501D01*
X355501Y116000D01*
X349503Y120998D02*
X351503Y119998D01*
X353502Y117999D01*
Y116000D01*
X352502Y115000D01*
X350503D01*
X349503Y116000D01*
Y116999D01*
X350503Y117999D01*
X353502D01*
X407401Y298328D02*
X408401Y299328D01*
X410400D01*
X411400Y298328D01*
Y294330D01*
X410400Y293330D01*
X408401D01*
X407401Y294330D01*
X401403Y299328D02*
X405402D01*
Y296329D01*
X403403Y297329D01*
X402403D01*
X401403Y296329D01*
Y294330D01*
X402403Y293330D01*
X404402D01*
X405402Y294330D01*
X366761Y297059D02*
X367761Y298058D01*
X369760D01*
X370760Y297059D01*
Y293060D01*
X369760Y292060D01*
X367761D01*
X366761Y293060D01*
X361763Y292060D02*
Y298058D01*
X364762Y295059D01*
X360763D01*
X336281Y298328D02*
X337281Y299328D01*
X339280D01*
X340280Y298328D01*
Y294330D01*
X339280Y293330D01*
X337281D01*
X336281Y294330D01*
X334282Y298328D02*
X333282Y299328D01*
X331283D01*
X330283Y298328D01*
Y297329D01*
X331283Y296329D01*
X332283D01*
X331283D01*
X330283Y295329D01*
Y294330D01*
X331283Y293330D01*
X333282D01*
X334282Y294330D01*
X243250Y168500D02*
Y174498D01*
X240251D01*
X239251Y173498D01*
Y171499D01*
X240251Y170499D01*
X243250D01*
X241251D02*
X239251Y168500D01*
X237252Y174498D02*
X233253D01*
Y173498D01*
X237252Y169500D01*
Y168500D01*
X303500Y174998D02*
X299501D01*
X301501D01*
Y169000D01*
X297502D02*
X295503D01*
X296502D01*
Y174998D01*
X297502Y173998D01*
X566500Y346500D02*
X560502D01*
Y343501D01*
X561502Y342501D01*
X563501D01*
X564501Y343501D01*
Y346500D01*
Y344501D02*
X566500Y342501D01*
X561502Y336503D02*
X560502Y337503D01*
Y339502D01*
X561502Y340502D01*
X565500D01*
X566500Y339502D01*
Y337503D01*
X565500Y336503D01*
X566500Y334504D02*
Y332505D01*
Y333504D01*
X560502D01*
X561502Y334504D01*
X543250Y347500D02*
X537252D01*
Y344501D01*
X538252Y343501D01*
X540251D01*
X541251Y344501D01*
Y347500D01*
Y345501D02*
X543250Y343501D01*
X538252Y337503D02*
X537252Y338503D01*
Y340502D01*
X538252Y341502D01*
X542250D01*
X543250Y340502D01*
Y338503D01*
X542250Y337503D01*
X543250Y331505D02*
Y335504D01*
X539251Y331505D01*
X538252D01*
X537252Y332505D01*
Y334504D01*
X538252Y335504D01*
X500750Y347750D02*
X494752D01*
Y344751D01*
X495752Y343751D01*
X497751D01*
X498751Y344751D01*
Y347750D01*
Y345751D02*
X500750Y343751D01*
X495752Y337753D02*
X494752Y338753D01*
Y340752D01*
X495752Y341752D01*
X499750D01*
X500750Y340752D01*
Y338753D01*
X499750Y337753D01*
X495752Y335754D02*
X494752Y334754D01*
Y332755D01*
X495752Y331755D01*
X496751D01*
X497751Y332755D01*
Y333755D01*
Y332755D01*
X498751Y331755D01*
X499750D01*
X500750Y332755D01*
Y334754D01*
X499750Y335754D01*
X478000Y348250D02*
X472002D01*
Y345251D01*
X473002Y344251D01*
X475001D01*
X476001Y345251D01*
Y348250D01*
Y346251D02*
X478000Y344251D01*
X473002Y338253D02*
X472002Y339253D01*
Y341252D01*
X473002Y342252D01*
X477000D01*
X478000Y341252D01*
Y339253D01*
X477000Y338253D01*
X478000Y333255D02*
X472002D01*
X475001Y336254D01*
Y332255D01*
M02*
