G04 Layer_Color=65535*
%FSLAX44Y44*%
%MOMM*%
G71*
G01*
G75*
%ADD30C,0.2540*%
%ADD44C,0.1000*%
%ADD45C,0.1270*%
%ADD46C,0.2000*%
D30*
X352750Y184250D02*
G03*
X352750Y184250I-45000J0D01*
G01*
D44*
X351000Y310750D02*
G03*
X351000Y310750I-1250J0D01*
G01*
X60140Y23090D02*
G03*
X60140Y23090I-2540J0D01*
G01*
X556230Y116670D02*
G03*
X556230Y116670I-2540J0D01*
G01*
X453180Y201840D02*
G03*
X453180Y201840I-2540J0D01*
G01*
X639750Y91250D02*
Y104750D01*
Y91250D02*
X671250D01*
Y104750D01*
X639750D02*
X671250D01*
X509250Y140000D02*
Y153500D01*
X477750D02*
X509250D01*
X477750Y140000D02*
Y153500D01*
Y140000D02*
X509250D01*
X463250D02*
Y153500D01*
X431750D02*
X463250D01*
X431750Y140000D02*
Y153500D01*
Y140000D02*
X463250D01*
X289750Y251500D02*
Y265000D01*
X258250D02*
X289750D01*
X258250Y251500D02*
Y265000D01*
Y251500D02*
X289750D01*
X163000Y132500D02*
X176500D01*
X163000Y101000D02*
Y132500D01*
Y101000D02*
X176500D01*
Y132500D01*
X123750Y135750D02*
Y149250D01*
Y135750D02*
X155250D01*
Y149250D01*
X123750D02*
X155250D01*
X190750Y135750D02*
Y149250D01*
X159250D02*
X190750D01*
X159250Y135750D02*
Y149250D01*
Y135750D02*
X190750D01*
X155250Y119000D02*
Y132500D01*
X123750D02*
X155250D01*
X123750Y119000D02*
Y132500D01*
Y119000D02*
X155250D01*
X175750Y263750D02*
Y277250D01*
Y263750D02*
X207250D01*
Y277250D01*
X175750D02*
X207250D01*
X343000Y249500D02*
Y317500D01*
Y249500D02*
X411000D01*
Y317500D01*
X343000D02*
X411000D01*
X596250Y280750D02*
Y294250D01*
Y280750D02*
X627750D01*
Y294250D01*
X596250D02*
X627750D01*
X604750Y306750D02*
Y320250D01*
X573250D02*
X604750D01*
X573250Y306750D02*
Y320250D01*
Y306750D02*
X604750D01*
X36350Y148040D02*
X49850D01*
Y179540D01*
X36350D02*
X49850D01*
X36350Y148040D02*
Y179540D01*
X590250Y12000D02*
Y25500D01*
X558750D02*
X590250D01*
X558750Y12000D02*
Y25500D01*
Y12000D02*
X590250D01*
X5000Y5000D02*
Y355000D01*
X685000D01*
Y5000D02*
Y355000D01*
X5000Y5000D02*
X685000D01*
X479750Y283750D02*
X559750D01*
Y243750D02*
Y283750D01*
X479750Y243750D02*
X559750D01*
X479750D02*
Y283750D01*
X604710Y60620D02*
Y79209D01*
Y26792D02*
Y45380D01*
X546290Y37760D02*
Y45380D01*
Y37760D02*
X557258Y26792D01*
X604710D01*
X546290Y60620D02*
Y68240D01*
X557259Y79209D01*
X604710D01*
X543019Y229369D02*
X590470D01*
X532050Y218400D02*
X543019Y229369D01*
X532050Y210780D02*
Y218400D01*
X543018Y176952D02*
X590470D01*
X532050Y187920D02*
X543018Y176952D01*
X532050Y187920D02*
Y195540D01*
X590470Y176952D02*
Y195540D01*
Y210780D02*
Y229369D01*
X619791Y81210D02*
X638380D01*
X653620D02*
X672208D01*
X653620Y22790D02*
X661240D01*
X672208Y33758D01*
Y81210D01*
X630760Y22790D02*
X638380D01*
X619791Y33759D02*
X630760Y22790D01*
X619791Y33759D02*
Y81210D01*
X134890Y99060D02*
X159750D01*
Y36000D02*
Y99060D01*
X151500Y27750D02*
X159750Y36000D01*
X134890Y27750D02*
X151500D01*
X100500D02*
X117110D01*
X92500Y35750D02*
X100500Y27750D01*
X92500Y35750D02*
Y99060D01*
X117110D01*
X98750Y338060D02*
X123360D01*
X98750Y274750D02*
Y338060D01*
Y274750D02*
X106750Y266750D01*
X123360D01*
X141140D02*
X157750D01*
X166000Y275000D01*
Y338060D01*
X141140D02*
X166000D01*
X176000Y332250D02*
X302250D01*
X176000Y282750D02*
X302250D01*
X176000Y319500D02*
Y332250D01*
Y282750D02*
Y295750D01*
X302250Y282750D02*
Y295750D01*
Y319500D02*
Y332250D01*
X18600Y16340D02*
Y18340D01*
Y28340D02*
Y30840D01*
Y40840D02*
Y43340D01*
Y53340D02*
Y55840D01*
X18850Y66090D02*
Y68090D01*
X81100Y28340D02*
Y30840D01*
Y40840D02*
Y43590D01*
X80850Y53340D02*
Y56340D01*
Y66090D02*
Y68090D01*
X18850D02*
X80850D01*
X78600Y16340D02*
X80475Y18215D01*
X18600Y16340D02*
X78600D01*
X546940Y95670D02*
Y155670D01*
Y95670D02*
X548815Y93795D01*
X598690Y93420D02*
Y155420D01*
X596690Y93420D02*
X598690D01*
X583940D02*
X586940D01*
X571440Y93170D02*
X574190D01*
X558940D02*
X561440D01*
X596690Y155420D02*
X598690D01*
X583940Y155670D02*
X586440D01*
X571440D02*
X573940D01*
X558940D02*
X561440D01*
X546940D02*
X548940D01*
X489640Y206590D02*
Y208590D01*
Y194090D02*
Y196590D01*
Y181590D02*
Y184090D01*
Y169090D02*
Y171590D01*
X489390Y156840D02*
Y158840D01*
X427140Y194090D02*
Y196590D01*
Y181340D02*
Y184090D01*
X427390Y168590D02*
Y171590D01*
Y156840D02*
Y158840D01*
Y156840D02*
X489390D01*
X427765Y206715D02*
X429640Y208590D01*
X489640D01*
X568250Y255500D02*
Y329250D01*
X654500D01*
Y255500D02*
Y329250D01*
X568250Y255500D02*
X654500D01*
X219750Y249000D02*
Y267500D01*
X254250D01*
X256250Y265500D01*
Y251000D02*
Y265500D01*
X254250Y249000D02*
X256250Y251000D01*
X219750Y249000D02*
X254250D01*
X184300Y247990D02*
X230020Y221320D01*
Y218000D02*
Y221320D01*
X100480D02*
X143660Y247990D01*
X100480Y218000D02*
Y221320D01*
X143660Y247990D02*
X184300D01*
X100480Y180680D02*
Y184000D01*
Y180680D02*
X144930Y154010D01*
X185570D01*
X230020Y180680D01*
Y183750D01*
X289750Y235000D02*
Y248500D01*
X258250D02*
X289750D01*
X258250Y235000D02*
Y248500D01*
Y235000D02*
X289750D01*
X476680Y210380D02*
Y223880D01*
X445180D02*
X476680D01*
X445180Y210380D02*
Y223880D01*
Y210380D02*
X476680D01*
X452250Y262750D02*
X465750D01*
Y294250D01*
X452250D02*
X465750D01*
X452250Y262750D02*
Y294250D01*
X504500Y119750D02*
X518000D01*
X504500Y88250D02*
Y119750D01*
Y88250D02*
X518000D01*
Y119750D01*
X530380Y128990D02*
X543880D01*
Y160490D01*
X530380D02*
X543880D01*
X530380Y128990D02*
Y160490D01*
X440250Y327500D02*
X453750D01*
X440250Y296000D02*
Y327500D01*
Y296000D02*
X453750D01*
Y327500D01*
X515000Y128750D02*
X528500D01*
Y160250D01*
X515000D02*
X528500D01*
X515000Y128750D02*
Y160250D01*
X258740Y334790D02*
Y348290D01*
Y334790D02*
X290240D01*
Y348290D01*
X258740D02*
X290240D01*
X224200Y334790D02*
Y348290D01*
X192700D02*
X224200D01*
X192700Y334790D02*
Y348290D01*
Y334790D02*
X224200D01*
X195000Y113000D02*
X205000D01*
X195000Y3000D02*
Y113000D01*
X495000Y3000D02*
Y113000D01*
X195000Y3000D02*
X495000D01*
X485001Y113000D02*
X495000D01*
X435000Y113000D02*
X455000D01*
X385000D02*
X405000D01*
X335000D02*
X355000D01*
X285000D02*
X305000D01*
X236000D02*
X255000D01*
X57000Y260500D02*
X73000D01*
X35000Y270500D02*
Y312500D01*
X57000Y324500D02*
X73000D01*
X95000Y273500D02*
Y314500D01*
X505500Y38250D02*
X514000D01*
X505500D02*
Y52750D01*
X518000Y62500D02*
X523580D01*
X536000Y38250D02*
Y52750D01*
X527500Y38250D02*
X536000D01*
X479500Y286500D02*
X559500D01*
X479500D02*
Y326500D01*
X559500D01*
Y286500D02*
Y326500D01*
X169000Y55748D02*
Y49750D01*
X171999D01*
X172999Y50750D01*
Y54748D01*
X171999Y55748D01*
X169000D01*
X174998Y47751D02*
Y53749D01*
X177997D01*
X178997Y52749D01*
Y50750D01*
X177997Y49750D01*
X174998D01*
X184995D02*
X180996D01*
X184995Y53749D01*
Y54748D01*
X183995Y55748D01*
X181996D01*
X180996Y54748D01*
X630000Y289499D02*
Y285500D01*
Y287500D01*
X631000Y288499D01*
X632000Y289499D01*
X632999D01*
X638997Y285500D02*
Y291498D01*
X635998Y288499D01*
X639997D01*
X641996Y284500D02*
X645995D01*
X651993Y285500D02*
X647994D01*
X651993Y289499D01*
Y290499D01*
X650993Y291498D01*
X648994D01*
X647994Y290499D01*
X597000Y298500D02*
Y304498D01*
X599999D01*
X600999Y303498D01*
Y301499D01*
X599999Y300499D01*
X597000D01*
X598999D02*
X600999Y298500D01*
X605997D02*
Y304498D01*
X602998Y301499D01*
X606997D01*
X608996Y297500D02*
X612995D01*
X614994Y298500D02*
X616994D01*
X615994D01*
Y304498D01*
X614994Y303498D01*
X210500Y79498D02*
X214499D01*
X212499D01*
Y73500D01*
X220497Y78498D02*
X219497Y79498D01*
X217498D01*
X216498Y78498D01*
Y77499D01*
X217498Y76499D01*
X219497D01*
X220497Y75499D01*
Y74500D01*
X219497Y73500D01*
X217498D01*
X216498Y74500D01*
X222496Y76499D02*
X226495D01*
X232493Y79498D02*
X228494D01*
Y76499D01*
X230494Y77499D01*
X231493D01*
X232493Y76499D01*
Y74500D01*
X231493Y73500D01*
X229494D01*
X228494Y74500D01*
X234492Y78498D02*
X235492Y79498D01*
X237491D01*
X238491Y78498D01*
Y74500D01*
X237491Y73500D01*
X235492D01*
X234492Y74500D01*
Y78498D01*
X244489Y79498D02*
X240490D01*
Y76499D01*
X242490Y77499D01*
X243489D01*
X244489Y76499D01*
Y74500D01*
X243489Y73500D01*
X241490D01*
X240490Y74500D01*
X246488Y76499D02*
X250487D01*
X256485Y79498D02*
X254486Y78498D01*
X252486Y76499D01*
Y74500D01*
X253486Y73500D01*
X255485D01*
X256485Y74500D01*
Y75499D01*
X255485Y76499D01*
X252486D01*
X258484Y73500D02*
Y79498D01*
X261483D01*
X262483Y78498D01*
Y76499D01*
X261483Y75499D01*
X258484D01*
X36750Y186142D02*
Y192140D01*
X39749D01*
X40749Y191140D01*
Y189141D01*
X39749Y188141D01*
X36750D01*
X38749D02*
X40749Y186142D01*
X42748D02*
X44748D01*
X43748D01*
Y192140D01*
X42748Y191140D01*
X47747D02*
X48746Y192140D01*
X50746D01*
X51745Y191140D01*
Y187142D01*
X50746Y186142D01*
X48746D01*
X47747Y187142D01*
Y191140D01*
X488518Y222210D02*
X483520D01*
X482520Y221210D01*
Y219211D01*
X483520Y218211D01*
X488518D01*
X482520Y213213D02*
X488518D01*
X485519Y216212D01*
Y212213D01*
X515500Y28248D02*
Y23250D01*
X516500Y22250D01*
X518499D01*
X519499Y23250D01*
Y28248D01*
X525497D02*
X521498D01*
Y25249D01*
X523497Y26249D01*
X524497D01*
X525497Y25249D01*
Y23250D01*
X524497Y22250D01*
X522498D01*
X521498Y23250D01*
X520750Y101250D02*
Y107248D01*
X523749D01*
X524749Y106248D01*
Y104249D01*
X523749Y103249D01*
X520750D01*
X522749D02*
X524749Y101250D01*
X526748D02*
X529747D01*
X530747Y102250D01*
X529747Y103249D01*
X527748D01*
X526748Y104249D01*
X527748Y105249D01*
X530747D01*
X536745Y107248D02*
X532746D01*
Y104249D01*
X534745Y105249D01*
X535745D01*
X536745Y104249D01*
Y102250D01*
X535745Y101250D01*
X533746D01*
X532746Y102250D01*
X433750Y286500D02*
Y292498D01*
X436749D01*
X437749Y291498D01*
Y289499D01*
X436749Y288499D01*
X433750D01*
X435749D02*
X437749Y286500D01*
X439748D02*
X442747D01*
X443747Y287500D01*
X442747Y288499D01*
X440748D01*
X439748Y289499D01*
X440748Y290499D01*
X443747D01*
X448745Y286500D02*
Y292498D01*
X445746Y289499D01*
X449745D01*
X445690Y227290D02*
Y233288D01*
X448689D01*
X449689Y232288D01*
Y230289D01*
X448689Y229289D01*
X445690D01*
X447690D02*
X449689Y227290D01*
X451688D02*
X454687D01*
X455687Y228290D01*
X454687Y229289D01*
X452688D01*
X451688Y230289D01*
X452688Y231289D01*
X455687D01*
X457686Y232288D02*
X458686Y233288D01*
X460685D01*
X461685Y232288D01*
Y231289D01*
X460685Y230289D01*
X459686D01*
X460685D01*
X461685Y229289D01*
Y228290D01*
X460685Y227290D01*
X458686D01*
X457686Y228290D01*
X429250Y139500D02*
X423252D01*
Y142499D01*
X424252Y143499D01*
X426251D01*
X427251Y142499D01*
Y139500D01*
Y141499D02*
X429250Y143499D01*
Y145498D02*
Y148497D01*
X428250Y149497D01*
X427251Y148497D01*
Y146498D01*
X426251Y145498D01*
X425251Y146498D01*
Y149497D01*
X429250Y151496D02*
Y153496D01*
Y152496D01*
X423252D01*
X424252Y151496D01*
X516999Y168248D02*
X515999Y169248D01*
X514000D01*
X513000Y168248D01*
Y164250D01*
X514000Y163250D01*
X515999D01*
X516999Y164250D01*
X518998Y163250D02*
X521997D01*
X522997Y164250D01*
X521997Y165249D01*
X519998D01*
X518998Y166249D01*
X519998Y167249D01*
X522997D01*
X528995Y169248D02*
X526996Y168248D01*
X524996Y166249D01*
Y164250D01*
X525996Y163250D01*
X527995D01*
X528995Y164250D01*
Y165249D01*
X527995Y166249D01*
X524996D01*
X426499Y332748D02*
X425499Y333748D01*
X423500D01*
X422500Y332748D01*
Y328750D01*
X423500Y327750D01*
X425499D01*
X426499Y328750D01*
X428498Y327750D02*
X431497D01*
X432497Y328750D01*
X431497Y329749D01*
X429498D01*
X428498Y330749D01*
X429498Y331749D01*
X432497D01*
X434496Y332748D02*
X435496Y333748D01*
X437495D01*
X438495Y332748D01*
Y331749D01*
X437495Y330749D01*
X436496D01*
X437495D01*
X438495Y329749D01*
Y328750D01*
X437495Y327750D01*
X435496D01*
X434496Y328750D01*
X500499Y135998D02*
X499499Y136998D01*
X497500D01*
X496500Y135998D01*
Y132000D01*
X497500Y131000D01*
X499499D01*
X500499Y132000D01*
X502498Y131000D02*
X505497D01*
X506497Y132000D01*
X505497Y132999D01*
X503498D01*
X502498Y133999D01*
X503498Y134999D01*
X506497D01*
X508496Y131000D02*
X510495D01*
X509496D01*
Y136998D01*
X508496Y135998D01*
X602500Y101998D02*
Y97000D01*
X603500Y96000D01*
X605499D01*
X606499Y97000D01*
Y101998D01*
X608498Y100998D02*
X609498Y101998D01*
X611497D01*
X612497Y100998D01*
Y99999D01*
X611497Y98999D01*
X610497D01*
X611497D01*
X612497Y97999D01*
Y97000D01*
X611497Y96000D01*
X609498D01*
X608498Y97000D01*
X624599Y88748D02*
X623599Y89748D01*
X621600D01*
X620600Y88748D01*
Y84750D01*
X621600Y83750D01*
X623599D01*
X624599Y84750D01*
X630597Y89748D02*
Y83750D01*
X627598D01*
X626598Y84750D01*
Y86749D01*
X627598Y87749D01*
X630597D01*
X636595Y89748D02*
X634595Y88748D01*
X632596Y86749D01*
Y84750D01*
X633596Y83750D01*
X635595D01*
X636595Y84750D01*
Y85749D01*
X635595Y86749D01*
X632596D01*
X651499Y112748D02*
X650499Y113748D01*
X648500D01*
X647500Y112748D01*
Y108750D01*
X648500Y107750D01*
X650499D01*
X651499Y108750D01*
X657497Y113748D02*
Y107750D01*
X654498D01*
X653498Y108750D01*
Y110749D01*
X654498Y111749D01*
X657497D01*
X663495Y113748D02*
X659496D01*
Y110749D01*
X661496Y111749D01*
X662495D01*
X663495Y110749D01*
Y108750D01*
X662495Y107750D01*
X660496D01*
X659496Y108750D01*
X560179Y237369D02*
X559179Y238368D01*
X557180D01*
X556180Y237369D01*
Y233370D01*
X557180Y232370D01*
X559179D01*
X560179Y233370D01*
X566177Y238368D02*
Y232370D01*
X563178D01*
X562178Y233370D01*
Y235369D01*
X563178Y236369D01*
X566177D01*
X571175Y232370D02*
Y238368D01*
X568176Y235369D01*
X572175D01*
X532239Y125609D02*
X531239Y126608D01*
X529240D01*
X528240Y125609D01*
Y121610D01*
X529240Y120610D01*
X531239D01*
X532239Y121610D01*
X538237Y126608D02*
Y120610D01*
X535238D01*
X534238Y121610D01*
Y123609D01*
X535238Y124609D01*
X538237D01*
X540236Y125609D02*
X541236Y126608D01*
X543235D01*
X544235Y125609D01*
Y124609D01*
X543235Y123609D01*
X542236D01*
X543235D01*
X544235Y122610D01*
Y121610D01*
X543235Y120610D01*
X541236D01*
X540236Y121610D01*
X570999Y40998D02*
X569999Y41998D01*
X568000D01*
X567000Y40998D01*
Y37000D01*
X568000Y36000D01*
X569999D01*
X570999Y37000D01*
X576997Y41998D02*
Y36000D01*
X573998D01*
X572998Y37000D01*
Y38999D01*
X573998Y39999D01*
X576997D01*
X582995Y36000D02*
X578996D01*
X582995Y39999D01*
Y40998D01*
X581995Y41998D01*
X579996D01*
X578996Y40998D01*
X546499Y20998D02*
X545499Y21998D01*
X543500D01*
X542500Y20998D01*
Y17000D01*
X543500Y16000D01*
X545499D01*
X546499Y17000D01*
X552497Y21998D02*
Y16000D01*
X549498D01*
X548498Y17000D01*
Y18999D01*
X549498Y19999D01*
X552497D01*
X554496Y16000D02*
X556496D01*
X555496D01*
Y21998D01*
X554496Y20998D01*
X612060Y246340D02*
Y252338D01*
X615059D01*
X616059Y251339D01*
Y249339D01*
X615059Y248340D01*
X612060D01*
X614059D02*
X616059Y246340D01*
X621057D02*
Y252338D01*
X618058Y249339D01*
X622057D01*
X471572Y255049D02*
X470572Y254049D01*
Y252050D01*
X471572Y251050D01*
X475570D01*
X476570Y252050D01*
Y254049D01*
X475570Y255049D01*
X470572Y260047D02*
Y258048D01*
X471572Y257048D01*
X475570D01*
X476570Y258048D01*
Y260047D01*
X475570Y261047D01*
X471572D01*
X470572Y260047D01*
X476570Y263046D02*
X470572D01*
X476570Y267045D01*
X470572D01*
X471572Y269044D02*
X470572Y270044D01*
Y272043D01*
X471572Y273043D01*
X472571D01*
X473571Y272043D01*
Y271043D01*
Y272043D01*
X474571Y273043D01*
X475570D01*
X476570Y272043D01*
Y270044D01*
X475570Y269044D01*
X91760Y18878D02*
Y13880D01*
X92760Y12880D01*
X94759D01*
X95759Y13880D01*
Y18878D01*
X101757Y12880D02*
X97758D01*
X101757Y16879D01*
Y17879D01*
X100757Y18878D01*
X98758D01*
X97758Y17879D01*
X155750Y239248D02*
Y233250D01*
X159749D01*
X161748Y231251D02*
Y237249D01*
X164747D01*
X165747Y236249D01*
Y234250D01*
X164747Y233250D01*
X161748D01*
X167746D02*
X169746D01*
X168746D01*
Y239248D01*
X167746Y238248D01*
X265250Y270000D02*
Y275998D01*
X268249D01*
X269249Y274998D01*
Y272999D01*
X268249Y271999D01*
X265250D01*
X267249D02*
X269249Y270000D01*
X271248Y268001D02*
Y273999D01*
X274247D01*
X275247Y272999D01*
Y271000D01*
X274247Y270000D01*
X271248D01*
X277246Y274998D02*
X278246Y275998D01*
X280245D01*
X281245Y274998D01*
Y273999D01*
X280245Y272999D01*
X279245D01*
X280245D01*
X281245Y271999D01*
Y271000D01*
X280245Y270000D01*
X278246D01*
X277246Y271000D01*
X104250Y123750D02*
Y129748D01*
X107249D01*
X108249Y128748D01*
Y126749D01*
X107249Y125749D01*
X104250D01*
X106249D02*
X108249Y123750D01*
X110248Y121751D02*
Y127749D01*
X113247D01*
X114247Y126749D01*
Y124750D01*
X113247Y123750D01*
X110248D01*
X120245D02*
X116246D01*
X120245Y127749D01*
Y128748D01*
X119245Y129748D01*
X117246D01*
X116246Y128748D01*
X105750Y140750D02*
Y146748D01*
X108749D01*
X109749Y145748D01*
Y143749D01*
X108749Y142749D01*
X105750D01*
X107749D02*
X109749Y140750D01*
X111748Y138751D02*
Y144749D01*
X114747D01*
X115747Y143749D01*
Y141750D01*
X114747Y140750D01*
X111748D01*
X117746D02*
X119746D01*
X118746D01*
Y146748D01*
X117746Y145748D01*
X190010Y261708D02*
Y255710D01*
X194009D01*
X200007Y261708D02*
X196008D01*
Y255710D01*
X200007D01*
X196008Y258709D02*
X198007D01*
X202006Y261708D02*
Y255710D01*
X205005D01*
X206005Y256710D01*
Y260708D01*
X205005Y261708D01*
X202006D01*
X208004Y253711D02*
Y259709D01*
X211003D01*
X212003Y258709D01*
Y256710D01*
X211003Y255710D01*
X208004D01*
X214002D02*
X216002D01*
X215002D01*
Y261708D01*
X214002Y260708D01*
X15150Y121688D02*
Y115690D01*
X18149D01*
X19149Y116690D01*
Y120688D01*
X18149Y121688D01*
X15150D01*
X21148Y113691D02*
Y119689D01*
X24147D01*
X25147Y118689D01*
Y116690D01*
X24147Y115690D01*
X21148D01*
X27146D02*
X29145D01*
X28146D01*
Y121688D01*
X27146Y120688D01*
X108309Y261778D02*
X107309Y262778D01*
X105310D01*
X104310Y261778D01*
Y257780D01*
X105310Y256780D01*
X107309D01*
X108309Y257780D01*
X110308Y254781D02*
Y260779D01*
X113307D01*
X114307Y259779D01*
Y257780D01*
X113307Y256780D01*
X110308D01*
X119305D02*
Y262778D01*
X116306Y259779D01*
X120305D01*
X197999Y145498D02*
X196999Y146498D01*
X195000D01*
X194000Y145498D01*
Y141500D01*
X195000Y140500D01*
X196999D01*
X197999Y141500D01*
X199998Y138501D02*
Y144499D01*
X202997D01*
X203997Y143499D01*
Y141500D01*
X202997Y140500D01*
X199998D01*
X205996Y145498D02*
X206996Y146498D01*
X208995D01*
X209995Y145498D01*
Y144499D01*
X208995Y143499D01*
X207995D01*
X208995D01*
X209995Y142499D01*
Y141500D01*
X208995Y140500D01*
X206996D01*
X205996Y141500D01*
X180252Y106499D02*
X179252Y105499D01*
Y103500D01*
X180252Y102500D01*
X184250D01*
X185250Y103500D01*
Y105499D01*
X184250Y106499D01*
X187249Y108498D02*
X181251D01*
Y111497D01*
X182251Y112497D01*
X184250D01*
X185250Y111497D01*
Y108498D01*
Y118495D02*
Y114496D01*
X181251Y118495D01*
X180252D01*
X179252Y117495D01*
Y115496D01*
X180252Y114496D01*
X143969Y109138D02*
X142969Y110138D01*
X140970D01*
X139970Y109138D01*
Y105140D01*
X140970Y104140D01*
X142969D01*
X143969Y105140D01*
X145968Y102141D02*
Y108139D01*
X148967D01*
X149967Y107139D01*
Y105140D01*
X148967Y104140D01*
X145968D01*
X151966D02*
X153966D01*
X152966D01*
Y110138D01*
X151966Y109138D01*
X309289Y323740D02*
Y327738D01*
X308289Y328738D01*
X306290D01*
X305290Y327738D01*
Y323740D01*
X306290Y322740D01*
X308289D01*
X307289Y324739D02*
X309289Y322740D01*
X308289D02*
X309289Y323740D01*
X311288Y322740D02*
X313287D01*
X312288D01*
Y328738D01*
X311288Y327738D01*
X298809Y343998D02*
X297809Y344998D01*
X295810D01*
X294810Y343998D01*
Y340000D01*
X295810Y339000D01*
X297809D01*
X298809Y340000D01*
X300808Y339000D02*
X302808D01*
X301808D01*
Y344998D01*
X300808Y343998D01*
X180699D02*
X179699Y344998D01*
X177700D01*
X176700Y343998D01*
Y340000D01*
X177700Y339000D01*
X179699D01*
X180699Y340000D01*
X186697Y339000D02*
X182698D01*
X186697Y342999D01*
Y343998D01*
X185697Y344998D01*
X183698D01*
X182698Y343998D01*
X636272Y174139D02*
X635272Y173139D01*
Y171140D01*
X636272Y170140D01*
X640270D01*
X641270Y171140D01*
Y173139D01*
X640270Y174139D01*
X635272Y179137D02*
Y177138D01*
X636272Y176138D01*
X640270D01*
X641270Y177138D01*
Y179137D01*
X640270Y180137D01*
X636272D01*
X635272Y179137D01*
X641270Y182136D02*
X635272D01*
X641270Y186135D01*
X635272D01*
X641270Y192133D02*
Y188134D01*
X637271Y192133D01*
X636272D01*
X635272Y191133D01*
Y189134D01*
X636272Y188134D01*
X52072Y212239D02*
X51072Y211239D01*
Y209240D01*
X52072Y208240D01*
X56070D01*
X57070Y209240D01*
Y211239D01*
X56070Y212239D01*
X51072Y217237D02*
Y215238D01*
X52072Y214238D01*
X56070D01*
X57070Y215238D01*
Y217237D01*
X56070Y218237D01*
X52072D01*
X51072Y217237D01*
X57070Y220236D02*
X51072D01*
X57070Y224235D01*
X51072D01*
X57070Y226234D02*
Y228234D01*
Y227234D01*
X51072D01*
X52072Y226234D01*
X332000Y334498D02*
Y329500D01*
X333000Y328500D01*
X334999D01*
X335999Y329500D01*
Y334498D01*
X337998Y328500D02*
X339997D01*
X338998D01*
Y334498D01*
X337998Y333498D01*
X211250Y271000D02*
Y276998D01*
X214249D01*
X215249Y275998D01*
Y273999D01*
X214249Y272999D01*
X211250D01*
X213249D02*
X215249Y271000D01*
X221247Y276998D02*
X217248D01*
Y273999D01*
X219247Y274999D01*
X220247D01*
X221247Y273999D01*
Y272000D01*
X220247Y271000D01*
X218248D01*
X217248Y272000D01*
X293000Y238750D02*
Y244748D01*
X295999D01*
X296999Y243748D01*
Y241749D01*
X295999Y240749D01*
X293000D01*
X294999D02*
X296999Y238750D01*
X302997Y244748D02*
X300997Y243748D01*
X298998Y241749D01*
Y239750D01*
X299998Y238750D01*
X301997D01*
X302997Y239750D01*
Y240749D01*
X301997Y241749D01*
X298998D01*
X39000Y246498D02*
X42999D01*
X40999D01*
Y240500D01*
X48997Y245498D02*
X47997Y246498D01*
X45998D01*
X44998Y245498D01*
Y244499D01*
X45998Y243499D01*
X47997D01*
X48997Y242499D01*
Y241500D01*
X47997Y240500D01*
X45998D01*
X44998Y241500D01*
X471835Y299832D02*
X471002Y298999D01*
Y297333D01*
X471835Y296500D01*
X475167D01*
X476000Y297333D01*
Y298999D01*
X475167Y299832D01*
X471002Y303997D02*
Y302331D01*
X471835Y301498D01*
X475167D01*
X476000Y302331D01*
Y303997D01*
X475167Y304831D01*
X471835D01*
X471002Y303997D01*
X476000Y306497D02*
X471002D01*
X476000Y309829D01*
X471002D01*
X476000Y313994D02*
X471002D01*
X473501Y311495D01*
Y314827D01*
D45*
X162250Y89000D02*
X190250D01*
X162250Y15000D02*
Y89000D01*
Y15000D02*
X190250D01*
Y89000D01*
X12750Y81250D02*
Y109250D01*
Y81250D02*
X86750D01*
Y109250D01*
X12750D02*
X86750D01*
D46*
X482003Y338914D02*
Y335582D01*
Y337248D01*
X490334D01*
X492000Y335582D01*
Y333916D01*
X490334Y332250D01*
X492000Y342247D02*
Y345579D01*
Y343913D01*
X482003D01*
X483669Y342247D01*
X502003Y338914D02*
Y335582D01*
Y337248D01*
X510334D01*
X512000Y335582D01*
Y333916D01*
X510334Y332250D01*
X512000Y348911D02*
Y342247D01*
X505336Y348911D01*
X503669D01*
X502003Y347245D01*
Y343913D01*
X503669Y342247D01*
X522003Y338914D02*
Y335582D01*
Y337248D01*
X530334D01*
X532000Y335582D01*
Y333916D01*
X530334Y332250D01*
X523669Y342247D02*
X522003Y343913D01*
Y347245D01*
X523669Y348911D01*
X525336D01*
X527002Y347245D01*
Y345579D01*
Y347245D01*
X528668Y348911D01*
X530334D01*
X532000Y347245D01*
Y343913D01*
X530334Y342247D01*
X542003Y338914D02*
Y335582D01*
Y337248D01*
X550334D01*
X552000Y335582D01*
Y333916D01*
X550334Y332250D01*
X552000Y347245D02*
X542003D01*
X547002Y342247D01*
Y348911D01*
X213250Y120500D02*
Y130497D01*
X218248D01*
X219914Y128831D01*
Y125498D01*
X218248Y123832D01*
X213250D01*
X223247Y125498D02*
X229911D01*
X226579Y128831D02*
Y122166D01*
X263250Y119000D02*
Y128997D01*
X268248D01*
X269914Y127331D01*
Y123998D01*
X268248Y122332D01*
X263250D01*
X273247Y123998D02*
X279911D01*
X311750Y129997D02*
Y120000D01*
X316748D01*
X318414Y121666D01*
Y128331D01*
X316748Y129997D01*
X311750D01*
X326745D02*
X323413D01*
X321747Y128331D01*
Y121666D01*
X323413Y120000D01*
X326745D01*
X328411Y121666D01*
Y128331D01*
X326745Y129997D01*
X361750Y120500D02*
Y127164D01*
X365082Y130497D01*
X368414Y127164D01*
Y120500D01*
Y125498D01*
X361750D01*
X376745Y130497D02*
X373413D01*
X371747Y128831D01*
Y122166D01*
X373413Y120500D01*
X376745D01*
X378411Y122166D01*
Y128831D01*
X376745Y130497D01*
X417664Y128081D02*
X415998Y129747D01*
X412666D01*
X411000Y128081D01*
Y126414D01*
X412666Y124748D01*
X415998D01*
X417664Y123082D01*
Y121416D01*
X415998Y119750D01*
X412666D01*
X411000Y121416D01*
X420997Y124748D02*
X427661D01*
X424329Y128081D02*
Y121416D01*
X467664Y128331D02*
X465998Y129997D01*
X462666D01*
X461000Y128331D01*
Y126664D01*
X462666Y124998D01*
X465998D01*
X467664Y123332D01*
Y121666D01*
X465998Y120000D01*
X462666D01*
X461000Y121666D01*
X470997Y124998D02*
X477661D01*
M02*
